<mxGraphModel dx="1116" dy="579" grid="1" gridSize="8" guides="1" tooltips="1" connect="1" arrows="1" fold="1" page="1" pageScale="1" pageWidth="1169" pageHeight="827" background="#ffffff"><root><MiscDiagram modelType="MiscDiagram" lastModifiedUserId="dbush@ibm.com" description="" lastModified="2022-01-25T15:56:31Z" _id="miscdiagram_r1imkmoEt" label="Business Automation Application on OCP" id="0"><mxCell/></MiscDiagram><mxCell id="1" parent="0"/><UserObject placeholders="1" label="50Gi RWX Storage" Icon-Name="block-storage--alt" id="miscdiagram_r1imkmoEt_23dyQyOwTDYJ"><mxCell style="shape=mxgraph.ibm2mondrian.base;shapeType=ln;shapeLayout=collapsed;colorFamily=cyan;colorBackground=noColor:noColor;html=1;whiteSpace=wrap;metaEdit=1;strokeWidth=1;collapsible=0;recursiveResize=0;expand=0;fontFamily=IBM Plex Sans;fontColor=#000000;fontSize=14;image=;verticalAlign=top;align=center;spacing=0;spacingLeft=0;spacingRight=0;spacingTop=0;spacingBottom=0;verticalLabelPosition=bottom;labelPosition=center;positionText=bottom;container=1;labelWidth=71;" vertex="1" parent="1"><mxGeometry x="116" y="536" width="48" height="48" as="geometry"/></mxCell></UserObject><UserObject placeholders="1" label="50Gi RWX Storage" Icon-Name="block-storage--alt" _id="userobject_3apZxnrHYxw" id="miscdiagram_r1imkmoEt_33dyQyOw29fP"><mxCell style="shape=mxgraph.ibm2mondrian.base;shapeType=ln;shapeLayout=collapsed;colorFamily=cyan;colorBackground=noColor:noColor;html=1;whiteSpace=wrap;metaEdit=1;strokeWidth=1;collapsible=0;recursiveResize=0;expand=0;fontFamily=IBM Plex Sans;fontColor=#000000;fontSize=14;image=;verticalAlign=top;align=center;spacing=0;spacingLeft=0;spacingRight=0;spacingTop=0;spacingBottom=0;verticalLabelPosition=bottom;labelPosition=center;positionText=bottom;container=1;labelWidth=71;" vertex="1" parent="1"><mxGeometry x="347" y="536" width="48" height="48" as="geometry"/></mxCell></UserObject><UserObject placeholders="1" label="50Gi RWX Storage" Icon-Name="block-storage--alt" _id="userobject_3apZyOF63hu" id="miscdiagram_r1imkmoEt_43dyQyOw5A8e"><mxCell style="shape=mxgraph.ibm2mondrian.base;shapeType=ln;shapeLayout=collapsed;colorFamily=cyan;colorBackground=noColor:noColor;html=1;whiteSpace=wrap;metaEdit=1;strokeWidth=1;collapsible=0;recursiveResize=0;expand=0;fontFamily=IBM Plex Sans;fontColor=#000000;fontSize=14;image=;verticalAlign=top;align=center;spacing=0;spacingLeft=0;spacingRight=0;spacingTop=0;spacingBottom=0;verticalLabelPosition=bottom;labelPosition=center;positionText=bottom;container=1;labelWidth=71;" vertex="1" parent="1"><mxGeometry x="605" y="400" width="48" height="48" as="geometry"/></mxCell></UserObject><mxCell id="miscdiagram_r1imkmoEt_53dyQyOwWWnV" style="edgeStyle=orthogonalEdgeStyle;rounded=1;orthogonalLoop=1;jettySize=auto;html=1;jumpStyle=arc;jumpSize=8;entryX=0.5;entryY=1;entryDx=0;entryDy=0;entryPerimeter=0;" edge="1" parent="1" source="miscdiagram_r1imkmoEt_23dyQyOwTDYJ" target="miscdiagram_r1imkmoEt_93dyQyOwv0ww"><mxGeometry relative="1" as="geometry"/></mxCell><mxCell id="miscdiagram_r1imkmoEt_63dyQyOw6UXJ" style="edgeStyle=orthogonalEdgeStyle;rounded=1;orthogonalLoop=1;jettySize=auto;html=1;jumpStyle=arc;jumpSize=8;entryX=0.5;entryY=1;entryDx=0;entryDy=0;entryPerimeter=0;" edge="1" parent="1" source="miscdiagram_r1imkmoEt_33dyQyOw29fP" target="miscdiagram_r1imkmoEt_153dyQyOwVxo5"><mxGeometry relative="1" as="geometry"/></mxCell><mxCell id="miscdiagram_r1imkmoEt_73dyQyOwRqg9" style="edgeStyle=orthogonalEdgeStyle;rounded=1;orthogonalLoop=1;jettySize=auto;html=1;jumpStyle=arc;jumpSize=8;entryX=0.468;entryY=1.011;entryDx=0;entryDy=0;entryPerimeter=0;" edge="1" parent="1" source="miscdiagram_r1imkmoEt_43dyQyOw5A8e" target="miscdiagram_r1imkmoEt_203dyQyOw3DO9"><mxGeometry relative="1" as="geometry"/></mxCell><UserObject placeholders="1" label="&lt;span style=&quot;font-family: &amp;#34;ibm plex sans&amp;#34;&quot;&gt;OpenShift 4.7-4.8 Non-Prod Cluster&lt;/span&gt;" Icon-Name="logo--openshift" id="miscdiagram_r1imkmoEt_83dyQyOwpKXb"><mxCell style="shape=mxgraph.ibm2mondrian.base;shapeType=pg;shapeLayout=expanded;colorFamily=green;colorBackground=noColor:noColor;strokeWidth=1;html=1;whiteSpace=wrap;metaEdit=1;collapsible=0;recursiveResize=0;expand=0;fontFamily=IBM Plex Sans SmBld;fontColor=#000000;fontSize=14;image=;verticalAlign=middle;align=left;spacing=0;spacingLeft=16;spacingRight=16;spacingTop=0;spacingBottom=0;container=1" vertex="1" parent="1"><mxGeometry x="16" y="16" width="480" height="472" as="geometry"/></mxCell></UserObject><UserObject placeholders="1" label="Dev Namespace" Icon-Name="border--none" id="miscdiagram_r1imkmoEt_93dyQyOwv0ww"><mxCell style="shape=mxgraph.ibm2mondrian.base;shapeType=lg;shapeLayout=expanded;colorFamily=green;colorBackground=noColor:noColor;html=1;whiteSpace=wrap;metaEdit=1;strokeWidth=1;collapsible=0;recursiveResize=0;expand=0;fontFamily=IBM Plex Sans;fontColor=#000000;fontSize=14;image=;verticalAlign=middle;align=left;spacing=0;spacingLeft=12;spacingRight=16;spacingTop=0;spacingBottom=0;container=1" vertex="1" parent="miscdiagram_r1imkmoEt_83dyQyOwpKXb"><mxGeometry x="16" y="48" width="216" height="408" as="geometry"/></mxCell></UserObject><UserObject placeholders="1" label="Worker Node" Icon-Name="cloud-services" id="miscdiagram_r1imkmoEt_103dyQyOwmWaq"><mxCell style="shape=mxgraph.ibm2mondrian.base;shapeType=lg;shapeLayout=expanded;colorFamily=blue;colorBackground=noColor:noColor;html=1;whiteSpace=wrap;metaEdit=1;strokeWidth=1;collapsible=0;recursiveResize=0;expand=0;fontFamily=IBM Plex Sans;fontColor=#000000;fontSize=14;image=;verticalAlign=middle;align=left;spacing=0;spacingLeft=12;spacingRight=16;spacingTop=0;spacingBottom=0;container=1" vertex="1" parent="miscdiagram_r1imkmoEt_93dyQyOwv0ww"><mxGeometry x="16" y="48" width="184" height="344" as="geometry"/></mxCell></UserObject><UserObject placeholders="1" label="Application Designer" Icon-Name="cube" id="miscdiagram_r1imkmoEt_113dyQyOwEog4"><mxCell style="shape=mxgraph.ibm2mondrian.base;shapeType=lg;shapeLayout=expanded;colorFamily=green;colorBackground=noColor:noColor;html=1;whiteSpace=wrap;metaEdit=1;strokeWidth=1;collapsible=0;recursiveResize=0;expand=0;fontFamily=IBM Plex Sans;fontColor=#000000;fontSize=14;image=;verticalAlign=middle;align=left;spacing=0;spacingLeft=12;spacingRight=16;spacingTop=0;spacingBottom=0;container=1" vertex="1" parent="miscdiagram_r1imkmoEt_103dyQyOwmWaq"><mxGeometry x="16" y="120" width="152" height="64" as="geometry"/></mxCell></UserObject><UserObject placeholders="1" label="Content Platform Engine (opt)" Icon-Name="cube" _id="userobject_32Uk57xUjQN" id="miscdiagram_r1imkmoEt_123dyQyOw8Fbm"><mxCell style="shape=mxgraph.ibm2mondrian.base;shapeType=lg;shapeLayout=expanded;colorFamily=green;colorBackground=noColor:noColor;html=1;whiteSpace=wrap;metaEdit=1;strokeWidth=1;collapsible=0;recursiveResize=0;expand=0;fontFamily=IBM Plex Sans;fontColor=#000000;fontSize=14;image=;verticalAlign=middle;align=left;spacing=0;spacingLeft=12;spacingRight=16;spacingTop=0;spacingBottom=0;container=1" vertex="1" parent="miscdiagram_r1imkmoEt_103dyQyOwmWaq"><mxGeometry x="16" y="192" width="152" height="64" as="geometry"/></mxCell></UserObject><UserObject placeholders="1" label="Business Automation Studio" Icon-Name="cube" _id="userobject_332VFZwwt8S" id="miscdiagram_r1imkmoEt_133dyQyOwLWKH"><mxCell style="shape=mxgraph.ibm2mondrian.base;shapeType=lg;shapeLayout=expanded;colorFamily=green;colorBackground=noColor:noColor;html=1;whiteSpace=wrap;metaEdit=1;strokeWidth=1;collapsible=0;recursiveResize=0;expand=0;fontFamily=IBM Plex Sans;fontColor=#000000;fontSize=14;image=;verticalAlign=middle;align=left;spacing=0;spacingLeft=12;spacingRight=16;spacingTop=0;spacingBottom=0;container=1" vertex="1" parent="miscdiagram_r1imkmoEt_103dyQyOwmWaq"><mxGeometry x="16" y="48" width="152" height="64" as="geometry"/></mxCell></UserObject><UserObject placeholders="1" label="GraphQL (opt)" Icon-Name="cube" _id="userobject_3apX0WuCkey" id="miscdiagram_r1imkmoEt_143dyQyOw7O6P"><mxCell style="shape=mxgraph.ibm2mondrian.base;shapeType=lg;shapeLayout=expanded;colorFamily=green;colorBackground=noColor:noColor;html=1;whiteSpace=wrap;metaEdit=1;strokeWidth=1;collapsible=0;recursiveResize=0;expand=0;fontFamily=IBM Plex Sans;fontColor=#000000;fontSize=14;image=;verticalAlign=middle;align=left;spacing=0;spacingLeft=12;spacingRight=16;spacingTop=0;spacingBottom=0;container=1" vertex="1" parent="miscdiagram_r1imkmoEt_103dyQyOwmWaq"><mxGeometry x="16" y="264" width="152" height="64" as="geometry"/></mxCell></UserObject><UserObject placeholders="1" label="Test/QA/StageNamespace" Icon-Name="border--none" _id="userobject_3apXua4F15U" id="miscdiagram_r1imkmoEt_153dyQyOwVxo5"><mxCell style="shape=mxgraph.ibm2mondrian.base;shapeType=lg;shapeLayout=expanded;colorFamily=green;colorBackground=noColor:noColor;html=1;whiteSpace=wrap;metaEdit=1;strokeWidth=1;collapsible=0;recursiveResize=0;expand=0;fontFamily=IBM Plex Sans;fontColor=#000000;fontSize=14;image=;verticalAlign=middle;align=left;spacing=0;spacingLeft=12;spacingRight=16;spacingTop=0;spacingBottom=0;container=1" vertex="1" parent="miscdiagram_r1imkmoEt_83dyQyOwpKXb"><mxGeometry x="248" y="48" width="216" height="280" as="geometry"/></mxCell></UserObject><UserObject placeholders="1" label="Worker Node" Icon-Name="cloud-services" _id="userobject_3apXua4WcLp" id="miscdiagram_r1imkmoEt_163dyQyOwWW0N"><mxCell style="shape=mxgraph.ibm2mondrian.base;shapeType=lg;shapeLayout=expanded;colorFamily=blue;colorBackground=noColor:noColor;html=1;whiteSpace=wrap;metaEdit=1;strokeWidth=1;collapsible=0;recursiveResize=0;expand=0;fontFamily=IBM Plex Sans;fontColor=#000000;fontSize=14;image=;verticalAlign=middle;align=left;spacing=0;spacingLeft=12;spacingRight=16;spacingTop=0;spacingBottom=0;container=1" vertex="1" parent="miscdiagram_r1imkmoEt_153dyQyOwVxo5"><mxGeometry x="16" y="48" width="184" height="208" as="geometry"/></mxCell></UserObject><UserObject placeholders="1" label="Content Platform Engine (opt)" Icon-Name="cube" _id="userobject_32Uk57xUjQN" id="miscdiagram_r1imkmoEt_173dyQyOwnJRY"><mxCell style="shape=mxgraph.ibm2mondrian.base;shapeType=lg;shapeLayout=expanded;colorFamily=green;colorBackground=noColor:noColor;html=1;whiteSpace=wrap;metaEdit=1;strokeWidth=1;collapsible=0;recursiveResize=0;expand=0;fontFamily=IBM Plex Sans;fontColor=#000000;fontSize=14;image=;verticalAlign=middle;align=left;spacing=0;spacingLeft=12;spacingRight=16;spacingTop=0;spacingBottom=0;container=1" vertex="1" parent="miscdiagram_r1imkmoEt_163dyQyOwWW0N"><mxGeometry x="16" y="48" width="152" height="64" as="geometry"/></mxCell></UserObject><UserObject placeholders="1" label="GraphQL (opt)" Icon-Name="cube" _id="userobject_3apX0WuCkey" id="miscdiagram_r1imkmoEt_183dyQyOwZVeq"><mxCell style="shape=mxgraph.ibm2mondrian.base;shapeType=lg;shapeLayout=expanded;colorFamily=green;colorBackground=noColor:noColor;html=1;whiteSpace=wrap;metaEdit=1;strokeWidth=1;collapsible=0;recursiveResize=0;expand=0;fontFamily=IBM Plex Sans;fontColor=#000000;fontSize=14;image=;verticalAlign=middle;align=left;spacing=0;spacingLeft=12;spacingRight=16;spacingTop=0;spacingBottom=0;container=1" vertex="1" parent="miscdiagram_r1imkmoEt_163dyQyOwWW0N"><mxGeometry x="16" y="128" width="152" height="64" as="geometry"/></mxCell></UserObject><UserObject placeholders="1" label="&lt;span style=&quot;font-family: &amp;#34;ibm plex sans&amp;#34;&quot;&gt;OpenShift 4.7-4.8 Prod Cluster&lt;/span&gt;" Icon-Name="logo--openshift" id="miscdiagram_r1imkmoEt_193dyQyOwMwuU"><mxCell style="shape=mxgraph.ibm2mondrian.base;shapeType=pg;shapeLayout=expanded;colorFamily=green;colorBackground=noColor:noColor;strokeWidth=1;html=1;whiteSpace=wrap;metaEdit=1;collapsible=0;recursiveResize=0;expand=0;fontFamily=IBM Plex Sans SmBld;fontColor=#000000;fontSize=14;image=;verticalAlign=middle;align=left;spacing=0;spacingLeft=16;spacingRight=16;spacingTop=0;spacingBottom=0;container=1" vertex="1" parent="1"><mxGeometry x="512" y="16" width="248" height="336" as="geometry"/></mxCell></UserObject><UserObject placeholders="1" label="Prod Namespace" Icon-Name="border--none" _id="userobject_3apYZ70ij72" id="miscdiagram_r1imkmoEt_203dyQyOw3DO9"><mxCell style="shape=mxgraph.ibm2mondrian.base;shapeType=lg;shapeLayout=expanded;colorFamily=green;colorBackground=noColor:noColor;html=1;whiteSpace=wrap;metaEdit=1;strokeWidth=1;collapsible=0;recursiveResize=0;expand=0;fontFamily=IBM Plex Sans;fontColor=#000000;fontSize=14;image=;verticalAlign=middle;align=left;spacing=0;spacingLeft=12;spacingRight=16;spacingTop=0;spacingBottom=0;container=1" vertex="1" parent="miscdiagram_r1imkmoEt_193dyQyOwMwuU"><mxGeometry x="16" y="48" width="216" height="272" as="geometry"/></mxCell></UserObject><UserObject placeholders="1" label="Worker Node" Icon-Name="cloud-services" _id="userobject_3apXua4WcLp" id="miscdiagram_r1imkmoEt_213dyQyOwe6aI"><mxCell style="shape=mxgraph.ibm2mondrian.base;shapeType=lg;shapeLayout=expanded;colorFamily=blue;colorBackground=noColor:noColor;html=1;whiteSpace=wrap;metaEdit=1;strokeWidth=1;collapsible=0;recursiveResize=0;expand=0;fontFamily=IBM Plex Sans;fontColor=#000000;fontSize=14;image=;verticalAlign=middle;align=left;spacing=0;spacingLeft=12;spacingRight=16;spacingTop=0;spacingBottom=0;container=1" vertex="1" parent="miscdiagram_r1imkmoEt_203dyQyOw3DO9"><mxGeometry x="16" y="48" width="184" height="208" as="geometry"/></mxCell></UserObject><UserObject placeholders="1" label="Content Platform Engine (opt)" Icon-Name="cube" _id="userobject_32Uk57xUjQN" id="miscdiagram_r1imkmoEt_223dyQyOwZZRC"><mxCell style="shape=mxgraph.ibm2mondrian.base;shapeType=lg;shapeLayout=expanded;colorFamily=green;colorBackground=noColor:noColor;html=1;whiteSpace=wrap;metaEdit=1;strokeWidth=1;collapsible=0;recursiveResize=0;expand=0;fontFamily=IBM Plex Sans;fontColor=#000000;fontSize=14;image=;verticalAlign=middle;align=left;spacing=0;spacingLeft=12;spacingRight=16;spacingTop=0;spacingBottom=0;container=1" vertex="1" parent="miscdiagram_r1imkmoEt_213dyQyOwe6aI"><mxGeometry x="16" y="48" width="152" height="64" as="geometry"/></mxCell></UserObject><UserObject placeholders="1" label="GraphQL (opt)" Icon-Name="cube" _id="userobject_3apX0WuCkey" id="miscdiagram_r1imkmoEt_233dyQyOwt6qD"><mxCell style="shape=mxgraph.ibm2mondrian.base;shapeType=lg;shapeLayout=expanded;colorFamily=green;colorBackground=noColor:noColor;html=1;whiteSpace=wrap;metaEdit=1;strokeWidth=1;collapsible=0;recursiveResize=0;expand=0;fontFamily=IBM Plex Sans;fontColor=#000000;fontSize=14;image=;verticalAlign=middle;align=left;spacing=0;spacingLeft=12;spacingRight=16;spacingTop=0;spacingBottom=0;container=1" vertex="1" parent="miscdiagram_r1imkmoEt_213dyQyOwe6aI"><mxGeometry x="16" y="128" width="152" height="64" as="geometry"/></mxCell></UserObject></root></mxGraphModel>